<svg width="438" height="280" viewBox="0 0 438 280" fill="none" xmlns="http://www.w3.org/2000/svg">
<path fill-rule="evenodd" clip-rule="evenodd" d="M432.132 30.2259C399.395 108.296 354.144 163.787 295.968 197.205C268.137 213.191 241.967 222.7 208.117 229.127C165.561 237.206 117.955 236.23 74.0755 226.379C65.313 224.412 58.071 223.072 57.9825 223.402C57.8942 223.732 63.2637 229.529 69.9151 236.284C92.4153 259.136 95.0218 262.85 93.2444 269.518C92.1504 273.624 87.9126 278.073 84.002 279.222C77.5461 281.118 75.1216 279.603 61.0167 264.849C53.8304 257.332 40.5786 243.922 31.5676 235.05C4.96915 208.863 2.34752 206.105 1.14112 203.054C-0.596706 198.66 0.395503 194.3 4.06811 190.199C6.84879 187.093 10.7684 185.392 33.5555 177.404C106.988 151.658 106.895 151.687 111.184 152.836C114.508 153.727 115.57 154.628 117.483 158.178C121.429 165.501 119.448 173.072 112.628 176.732C110.497 177.876 97.9602 182.58 84.7684 187.187C71.5766 191.794 60.5099 195.714 60.1759 195.898C58.9275 196.585 93.1937 203.935 105.21 205.559C125.684 208.324 151.047 209.035 173.543 207.474C234.899 203.218 290.268 178.729 332.63 137.115C364.123 106.176 393.138 60.2466 410.935 13.1582C413.908 5.29268 416.432 2.28649 421.255 0.870475C431.001 -1.99383 440.11 7.2808 437.18 17.0847C436.551 19.1937 434.279 25.1072 432.132 30.2259Z" fill="white"/>
</svg>
